<svg width="30" height="30" viewBox="0 0 30 30" fill="none" xmlns="http://www.w3.org/2000/svg">
<path d="M10.2548 23.3801C9.99067 23.6443 9.84225 24.0026 9.84225 24.3762C9.84225 24.7498 9.99067 25.1081 10.2548 25.3723C10.519 25.6365 10.8773 25.7849 11.2509 25.7849C11.6245 25.7849 11.9829 25.6365 12.247 25.3723L21.622 15.9973C21.7531 15.8667 21.8572 15.7114 21.9281 15.5405C21.9991 15.3696 22.0356 15.1863 22.0356 15.0012C22.0356 14.8161 21.9991 14.6329 21.9281 14.4619C21.8572 14.291 21.7531 14.1358 21.622 14.0051L12.247 4.63012C11.9829 4.36594 11.6245 4.21753 11.2509 4.21753C10.8773 4.21753 10.519 4.36594 10.2548 4.63012C9.99067 4.89431 9.84225 5.25261 9.84225 5.62622C9.84225 5.99983 9.99067 6.35813 10.2548 6.62231L18.6326 15L10.2548 23.3801Z" fill="black"/>
</svg>
