<svg width="30" height="30" viewBox="0 0 30 30" fill="none" xmlns="http://www.w3.org/2000/svg">
<path d="M15 6.5625C13.3312 6.5625 11.6999 7.05735 10.3124 7.98448C8.92484 8.9116 7.84339 10.2294 7.20477 11.7711C6.56616 13.3129 6.39907 15.0094 6.72463 16.6461C7.05019 18.2828 7.85379 19.7862 9.03379 20.9662C10.2138 22.1462 11.7172 22.9498 13.3539 23.2754C14.9906 23.6009 16.6871 23.4338 18.2289 22.7952C19.7706 22.1566 21.0884 21.0752 22.0155 19.6876C22.9427 18.3001 23.4375 16.6688 23.4375 15C23.435 12.763 22.5453 10.6183 20.9635 9.03653C19.3817 7.45473 17.237 6.56498 15 6.5625ZM15 18.75C15.5827 18.752 16.1577 18.6174 16.679 18.3569C17.2002 18.0964 17.653 17.7173 18.0012 17.25C18.0743 17.1494 18.1667 17.0644 18.273 16.9998C18.3793 16.9353 18.4974 16.8926 18.6204 16.8741C18.7434 16.8557 18.8688 16.8619 18.9894 16.8924C19.1099 16.9229 19.2232 16.977 19.3226 17.0517C19.4221 17.1264 19.5056 17.2202 19.5685 17.3275C19.6313 17.4348 19.6722 17.5536 19.6887 17.6768C19.7052 17.8001 19.697 17.9254 19.6646 18.0455C19.6322 18.1655 19.5763 18.2779 19.5 18.3762C18.7914 19.3202 17.8038 20.0174 16.6769 20.369C15.5501 20.7207 14.3413 20.7089 13.2215 20.3354C12.1017 19.9619 11.1279 19.2456 10.4378 18.288C9.74767 17.3303 9.37632 16.1798 9.37632 14.9994C9.37632 13.819 9.74767 12.6685 10.4378 11.7109C11.1279 10.7532 12.1017 10.0369 13.2215 9.66342C14.3413 9.28992 15.5501 9.27816 16.6769 9.62978C17.8038 9.98141 18.7914 10.6786 19.5 11.6227C19.5763 11.7209 19.6322 11.8333 19.6646 11.9534C19.697 12.0734 19.7052 12.1988 19.6887 12.322C19.6722 12.4453 19.6313 12.564 19.5685 12.6713C19.5056 12.7786 19.4221 12.8724 19.3226 12.9471C19.2232 13.0218 19.1099 13.076 18.9894 13.1065C18.8688 13.1369 18.7434 13.1431 18.6204 13.1247C18.4974 13.1062 18.3793 13.0635 18.273 12.999C18.1667 12.9345 18.0743 12.8494 18.0012 12.7488C17.6175 12.2377 17.1096 11.8331 16.5257 11.5735C15.9418 11.3138 15.3012 11.2077 14.6647 11.2652C14.0282 11.3227 13.417 11.5419 12.8891 11.902C12.3611 12.2621 11.9339 12.7511 11.6481 13.3227C11.3622 13.8943 11.2272 14.5294 11.2558 15.1678C11.2844 15.8062 11.4757 16.4268 11.8115 16.9705C12.1473 17.5142 12.6165 17.9631 13.1745 18.2745C13.7326 18.586 14.3609 18.7497 15 18.75ZM15 2.8125C12.5895 2.8125 10.2332 3.52728 8.22899 4.86646C6.22477 6.20564 4.66267 8.10907 3.74022 10.336C2.81778 12.563 2.57643 15.0135 3.04668 17.3777C3.51694 19.7418 4.67769 21.9134 6.38214 23.6179C8.08659 25.3223 10.2582 26.4831 12.6223 26.9533C14.9865 27.4236 17.437 27.1822 19.664 26.2598C21.8909 25.3373 23.7944 23.7752 25.1335 21.771C26.4727 19.7668 27.1875 17.4105 27.1875 15C27.1841 11.7687 25.899 8.67076 23.6141 6.3859C21.3292 4.10104 18.2313 2.81591 15 2.8125ZM15 25.3125C12.9604 25.3125 10.9666 24.7077 9.27069 23.5745C7.57481 22.4414 6.25303 20.8308 5.4725 18.9464C4.69197 17.0621 4.48775 14.9886 4.88566 12.9881C5.28357 10.9877 6.26574 9.15019 7.70797 7.70796C9.1502 6.26573 10.9877 5.28356 12.9881 4.88565C14.9886 4.48774 17.0621 4.69196 18.9464 5.47249C20.8308 6.25302 22.4414 7.5748 23.5745 9.27068C24.7077 10.9666 25.3125 12.9604 25.3125 15C25.3094 17.7341 24.2219 20.3553 22.2886 22.2886C20.3553 24.2219 17.7341 25.3094 15 25.3125Z" fill="white"/>
</svg>
