<svg width="33" height="33" viewBox="0 0 33 33" fill="none" xmlns="http://www.w3.org/2000/svg">
<path d="M32.9999 16.4981C32.9947 20.5308 31.5151 24.4224 28.8398 27.4399C26.1645 30.4574 22.4782 32.3925 18.4752 32.8807C18.386 32.8908 18.2958 32.8819 18.2103 32.8545C18.1249 32.8272 18.0462 32.782 17.9795 32.7221C17.9128 32.6621 17.8596 32.5887 17.8233 32.5066C17.787 32.4246 17.7686 32.3358 17.7692 32.2461V20.3058H21.5768C21.7508 20.3062 21.9231 20.2708 22.0828 20.2018C22.2425 20.1328 22.3864 20.0317 22.5054 19.9048C22.6244 19.7779 22.7161 19.6279 22.7747 19.4641C22.8333 19.3002 22.8576 19.1261 22.8461 18.9525C22.818 18.6261 22.6675 18.3224 22.4246 18.1026C22.1818 17.8827 21.8647 17.7629 21.5372 17.7673H17.7692V13.9596C17.7692 13.2864 18.0366 12.6407 18.5127 12.1647C18.9887 11.6886 19.6344 11.4212 20.3076 11.4212H22.8461C23.0201 11.4216 23.1923 11.3862 23.352 11.3172C23.5118 11.2482 23.6556 11.1471 23.7747 11.0202C23.8937 10.8933 23.9853 10.7433 24.0439 10.5794C24.1025 10.4156 24.1268 10.2415 24.1153 10.0679C24.0872 9.74093 23.9362 9.43681 23.6927 9.21686C23.4492 8.99691 23.1313 8.8775 22.8032 8.88272H20.3076C18.9611 8.88272 17.6698 9.4176 16.7177 10.3697C15.7656 11.3218 15.2307 12.6132 15.2307 13.9596V17.7673H11.423C11.249 17.7669 11.0768 17.8023 10.9171 17.8713C10.7573 17.9403 10.6135 18.0414 10.4944 18.1683C10.3754 18.2952 10.2837 18.4452 10.2251 18.6091C10.1665 18.7729 10.1422 18.947 10.1538 19.1206C10.1818 19.4476 10.3329 19.7517 10.5764 19.9717C10.8199 20.1916 11.1377 20.311 11.4658 20.3058H15.2307V32.2493C15.2312 32.3388 15.2128 32.4275 15.1767 32.5094C15.1405 32.5913 15.0874 32.6647 15.0209 32.7246C14.9543 32.7845 14.8759 32.8297 14.7906 32.8572C14.7054 32.8846 14.6153 32.8937 14.5263 32.8839C10.4161 32.3833 6.64366 30.3579 3.9556 27.2086C1.26755 24.0593 -0.140189 20.0155 0.0110337 15.8778C0.328341 7.31046 7.26786 0.345553 15.8415 0.0123794C18.0612 -0.0736014 20.2755 0.288994 22.3518 1.07848C24.4282 1.86796 26.324 3.06811 27.9258 4.60715C29.5276 6.14618 30.8026 7.99248 31.6744 10.0356C32.5463 12.0787 32.9971 14.2767 32.9999 16.4981Z" fill="white"/>
</svg>
