<svg width="33" height="33" viewBox="0 0 33 33" fill="none" xmlns="http://www.w3.org/2000/svg">
<path d="M24.1154 0H8.88462C6.52904 0.00251978 4.27067 0.939384 2.60503 2.60503C0.939384 4.27067 0.00251978 6.52904 0 8.88462V24.1154C0.00251978 26.471 0.939384 28.7293 2.60503 30.395C4.27067 32.0606 6.52904 32.9975 8.88462 33H24.1154C26.471 32.9975 28.7293 32.0606 30.395 30.395C32.0606 28.7293 32.9975 26.471 33 24.1154V8.88462C32.9975 6.52904 32.0606 4.27067 30.395 2.60503C28.7293 0.939384 26.471 0.00251978 24.1154 0ZM16.5 24.1154C14.9938 24.1154 13.5215 23.6688 12.2691 22.832C11.0168 21.9952 10.0407 20.8058 9.4643 19.4143C8.88791 18.0228 8.7371 16.4916 9.03094 15.0143C9.32478 13.5371 10.0501 12.1801 11.1151 11.1151C12.1801 10.0501 13.5371 9.32478 15.0143 9.03094C16.4916 8.7371 18.0228 8.88791 19.4143 9.4643C20.8058 10.0407 21.9952 11.0168 22.832 12.2691C23.6688 13.5215 24.1154 14.9938 24.1154 16.5C24.1133 18.5191 23.3103 20.4549 21.8826 21.8826C20.4549 23.3103 18.5191 24.1133 16.5 24.1154ZM26.0192 8.88462C25.6427 8.88462 25.2746 8.77296 24.9615 8.56376C24.6484 8.35456 24.4044 8.05722 24.2603 7.70934C24.1162 7.36146 24.0785 6.97866 24.152 6.60935C24.2254 6.24004 24.4068 5.9008 24.673 5.63455C24.9393 5.36829 25.2785 5.18696 25.6478 5.1135C26.0171 5.04004 26.3999 5.07775 26.7478 5.22184C27.0957 5.36594 27.393 5.60996 27.6022 5.92305C27.8114 6.23613 27.9231 6.60422 27.9231 6.98077C27.9231 7.4857 27.7225 7.96995 27.3655 8.32699C27.0084 8.68403 26.5242 8.88462 26.0192 8.88462ZM21.5769 16.5C21.5769 17.5041 21.2792 18.4857 20.7213 19.3206C20.1634 20.1555 19.3705 20.8062 18.4429 21.1905C17.5152 21.5747 16.4944 21.6753 15.5095 21.4794C14.5247 21.2835 13.6201 20.7999 12.9101 20.0899C12.2001 19.3799 11.7165 18.4753 11.5206 17.4905C11.3247 16.5056 11.4253 15.4848 11.8095 14.5571C12.1938 13.6295 12.8445 12.8366 13.6794 12.2787C14.5143 11.7208 15.4959 11.4231 16.5 11.4231C17.8465 11.4231 19.1378 11.958 20.0899 12.9101C21.042 13.8622 21.5769 15.1535 21.5769 16.5Z" fill="white"/>
</svg>
