<svg width="30" height="30" viewBox="0 0 30 30" fill="none" xmlns="http://www.w3.org/2000/svg">
<path d="M19.7447 23.3801C20.0088 23.6443 20.1573 24.0026 20.1573 24.3762C20.1573 24.7498 20.0088 25.1081 19.7447 25.3723C19.4805 25.6365 19.1222 25.7849 18.7486 25.7849C18.375 25.7849 18.0167 25.6365 17.7525 25.3723L8.37748 15.9973C8.24638 15.8667 8.14236 15.7114 8.07138 15.5405C8.0004 15.3696 7.96387 15.1863 7.96387 15.0012C7.96387 14.8161 8.0004 14.6329 8.07138 14.4619C8.14236 14.291 8.24638 14.1358 8.37748 14.0051L17.7525 4.63012C18.0167 4.36594 18.375 4.21753 18.7486 4.21753C19.1222 4.21753 19.4805 4.36594 19.7447 4.63012C20.0088 4.89431 20.1573 5.25261 20.1573 5.62622C20.1573 5.99983 20.0088 6.35813 19.7447 6.62231L11.3669 15L19.7447 23.3801Z" fill="black"/>
</svg>
