<svg width="25" height="25" viewBox="0 0 25 25" fill="none" xmlns="http://www.w3.org/2000/svg">
<path d="M20.3604 18.7022C20.5806 18.9224 20.7043 19.221 20.7043 19.5323C20.7043 19.8436 20.5806 20.1422 20.3604 20.3624C20.1403 20.5825 19.8417 20.7062 19.5304 20.7062C19.219 20.7062 18.9204 20.5825 18.7003 20.3624L12.5001 14.1602L6.29793 20.3604C6.07778 20.5806 5.77919 20.7043 5.46785 20.7043C5.15651 20.7043 4.85793 20.5806 4.63778 20.3604C4.41762 20.1403 4.29395 19.8417 4.29395 19.5304C4.29395 19.219 4.41762 18.9204 4.63778 18.7003L10.8399 12.5001L4.63973 6.29793C4.41958 6.07778 4.2959 5.77919 4.2959 5.46785C4.2959 5.15651 4.41958 4.85793 4.63973 4.63777C4.85988 4.41762 5.15847 4.29395 5.46981 4.29395C5.78115 4.29395 6.07973 4.41762 6.29988 4.63777L12.5001 10.8399L18.7022 4.6368C18.9224 4.41665 19.221 4.29297 19.5323 4.29297C19.8436 4.29297 20.1422 4.41665 20.3624 4.6368C20.5825 4.85695 20.7062 5.15554 20.7062 5.46688C20.7062 5.77822 20.5825 6.0768 20.3624 6.29695L14.1602 12.5001L20.3604 18.7022Z" fill="#FF1515"/>
</svg>
