<svg width="25" height="25" viewBox="0 0 25 25" fill="none" xmlns="http://www.w3.org/2000/svg">
<path d="M22.7042 7.86043L10.2042 20.3604C10.0953 20.4697 9.96594 20.5564 9.8235 20.6155C9.68106 20.6747 9.52834 20.7051 9.3741 20.7051C9.21987 20.7051 9.06715 20.6747 8.92471 20.6155C8.78226 20.5564 8.6529 20.4697 8.54402 20.3604L3.07527 14.8917C2.96627 14.7827 2.8798 14.6533 2.8208 14.5108C2.76181 14.3684 2.73145 14.2158 2.73145 14.0616C2.73145 13.9074 2.76181 13.7548 2.8208 13.6124C2.8798 13.4699 2.96627 13.3405 3.07527 13.2315C3.18428 13.1225 3.31369 13.036 3.45612 12.9771C3.59854 12.9181 3.75119 12.8877 3.90535 12.8877C4.05951 12.8877 4.21216 12.9181 4.35459 12.9771C4.49701 13.036 4.62642 13.1225 4.73543 13.2315L9.37508 17.8712L21.046 6.20223C21.2661 5.98208 21.5647 5.8584 21.8761 5.8584C22.1874 5.8584 22.486 5.98208 22.7061 6.20223C22.9263 6.42238 23.05 6.72097 23.05 7.03231C23.05 7.34365 22.9263 7.64223 22.7061 7.86238L22.7042 7.86043Z" fill="#0CFF41"/>
</svg>
